<mxfile host="app.diagrams.net" modified="2024-05-21T19:45:30.663Z" agent="Mozilla/5.0 (Windows NT 10.0; Win64; x64) AppleWebKit/537.36 (KHTML, like Gecko) Chrome/122.0.0.0 YaBrowser/24.4.0.0 Safari/537.36" etag="mak2RmucXnoFphOrPOhn" version="24.4.4" type="device">
  <diagram id="C5RBs43oDa-KdzZeNtuy" name="Page-1">
    <mxGraphModel dx="1616" dy="682" grid="0" gridSize="10" guides="0" tooltips="1" connect="0" arrows="1" fold="1" page="0" pageScale="1" pageWidth="827" pageHeight="1169" math="0" shadow="0">
      <root>
        <mxCell id="WIyWlLk6GJQsqaUBKTNV-0" />
        <mxCell id="WIyWlLk6GJQsqaUBKTNV-1" parent="WIyWlLk6GJQsqaUBKTNV-0" />
        <mxCell id="oOPolchfcTFNNOlcy2nE-21" style="edgeStyle=orthogonalEdgeStyle;rounded=0;orthogonalLoop=1;jettySize=auto;html=1;entryX=0.5;entryY=0;entryDx=0;entryDy=0;" parent="WIyWlLk6GJQsqaUBKTNV-1" source="oOPolchfcTFNNOlcy2nE-0" target="oOPolchfcTFNNOlcy2nE-1" edge="1">
          <mxGeometry relative="1" as="geometry" />
        </mxCell>
        <mxCell id="oOPolchfcTFNNOlcy2nE-0" value="Начало" style="ellipse;whiteSpace=wrap;html=1;" parent="WIyWlLk6GJQsqaUBKTNV-1" vertex="1">
          <mxGeometry x="-118" y="221" width="160" height="60" as="geometry" />
        </mxCell>
        <mxCell id="oOPolchfcTFNNOlcy2nE-22" style="edgeStyle=orthogonalEdgeStyle;rounded=0;orthogonalLoop=1;jettySize=auto;html=1;entryX=0.5;entryY=0;entryDx=0;entryDy=0;" parent="WIyWlLk6GJQsqaUBKTNV-1" source="oOPolchfcTFNNOlcy2nE-1" target="oOPolchfcTFNNOlcy2nE-3" edge="1">
          <mxGeometry relative="1" as="geometry" />
        </mxCell>
        <mxCell id="oOPolchfcTFNNOlcy2nE-1" value="Пользователь зашёл в раздел анализ района" style="rounded=0;whiteSpace=wrap;html=1;" parent="WIyWlLk6GJQsqaUBKTNV-1" vertex="1">
          <mxGeometry x="-118" y="325" width="160" height="60" as="geometry" />
        </mxCell>
        <mxCell id="oOPolchfcTFNNOlcy2nE-3" value="Пользователь вводит город и район" style="shape=parallelogram;perimeter=parallelogramPerimeter;whiteSpace=wrap;html=1;fixedSize=1;" parent="WIyWlLk6GJQsqaUBKTNV-1" vertex="1">
          <mxGeometry x="-113" y="436" width="150" height="70" as="geometry" />
        </mxCell>
        <mxCell id="oOPolchfcTFNNOlcy2nE-24" style="edgeStyle=orthogonalEdgeStyle;rounded=0;orthogonalLoop=1;jettySize=auto;html=1;entryX=0.5;entryY=0;entryDx=0;entryDy=0;" parent="WIyWlLk6GJQsqaUBKTNV-1" source="oOPolchfcTFNNOlcy2nE-4" target="oOPolchfcTFNNOlcy2nE-6" edge="1">
          <mxGeometry relative="1" as="geometry" />
        </mxCell>
        <mxCell id="oOPolchfcTFNNOlcy2nE-4" value="Формируется запрос поиска квартир на продажу" style="rounded=0;whiteSpace=wrap;html=1;" parent="WIyWlLk6GJQsqaUBKTNV-1" vertex="1">
          <mxGeometry x="137" y="199" width="160" height="60" as="geometry" />
        </mxCell>
        <mxCell id="oOPolchfcTFNNOlcy2nE-5" value="формируется запрос поиска квартир на аренду" style="rounded=0;whiteSpace=wrap;html=1;" parent="WIyWlLk6GJQsqaUBKTNV-1" vertex="1">
          <mxGeometry x="137" y="517" width="160" height="60" as="geometry" />
        </mxCell>
        <mxCell id="oOPolchfcTFNNOlcy2nE-25" style="edgeStyle=orthogonalEdgeStyle;rounded=0;orthogonalLoop=1;jettySize=auto;html=1;entryX=0.5;entryY=0;entryDx=0;entryDy=0;" parent="WIyWlLk6GJQsqaUBKTNV-1" source="oOPolchfcTFNNOlcy2nE-6" target="oOPolchfcTFNNOlcy2nE-7" edge="1">
          <mxGeometry relative="1" as="geometry" />
        </mxCell>
        <mxCell id="oOPolchfcTFNNOlcy2nE-6" value="Выполнение запроса в СУБД" style="rounded=0;whiteSpace=wrap;html=1;" parent="WIyWlLk6GJQsqaUBKTNV-1" vertex="1">
          <mxGeometry x="137" y="289" width="160" height="60" as="geometry" />
        </mxCell>
        <mxCell id="oOPolchfcTFNNOlcy2nE-60" value="да" style="edgeStyle=orthogonalEdgeStyle;rounded=0;orthogonalLoop=1;jettySize=auto;html=1;entryX=0.497;entryY=0.016;entryDx=0;entryDy=0;entryPerimeter=0;" parent="WIyWlLk6GJQsqaUBKTNV-1" source="oOPolchfcTFNNOlcy2nE-7" target="oOPolchfcTFNNOlcy2nE-5" edge="1">
          <mxGeometry relative="1" as="geometry">
            <mxPoint x="217" y="504.04781214396166" as="targetPoint" />
          </mxGeometry>
        </mxCell>
        <mxCell id="oOPolchfcTFNNOlcy2nE-65" value="нет" style="edgeStyle=orthogonalEdgeStyle;rounded=0;orthogonalLoop=1;jettySize=auto;html=1;entryX=0.527;entryY=1.013;entryDx=0;entryDy=0;entryPerimeter=0;" parent="WIyWlLk6GJQsqaUBKTNV-1" source="oOPolchfcTFNNOlcy2nE-7" target="oOPolchfcTFNNOlcy2nE-19" edge="1">
          <mxGeometry x="-0.9719" y="-2" relative="1" as="geometry">
            <mxPoint x="109.58515675862645" y="669.9568799336753" as="targetPoint" />
            <Array as="points">
              <mxPoint x="100" y="439" />
              <mxPoint x="100" y="705" />
              <mxPoint x="729" y="705" />
            </Array>
            <mxPoint as="offset" />
          </mxGeometry>
        </mxCell>
        <mxCell id="oOPolchfcTFNNOlcy2nE-7" value="Найдена хотя бы одна квартира?" style="rhombus;whiteSpace=wrap;html=1;" parent="WIyWlLk6GJQsqaUBKTNV-1" vertex="1">
          <mxGeometry x="137" y="399" width="160" height="80" as="geometry" />
        </mxCell>
        <mxCell id="oOPolchfcTFNNOlcy2nE-28" style="edgeStyle=orthogonalEdgeStyle;rounded=0;orthogonalLoop=1;jettySize=auto;html=1;entryX=0.5;entryY=0;entryDx=0;entryDy=0;" parent="WIyWlLk6GJQsqaUBKTNV-1" source="oOPolchfcTFNNOlcy2nE-9" target="oOPolchfcTFNNOlcy2nE-10" edge="1">
          <mxGeometry relative="1" as="geometry" />
        </mxCell>
        <mxCell id="oOPolchfcTFNNOlcy2nE-9" value="Выполнение запроса в СУБД" style="rounded=0;whiteSpace=wrap;html=1;align=center;" parent="WIyWlLk6GJQsqaUBKTNV-1" vertex="1">
          <mxGeometry x="375" y="90" width="160" height="60" as="geometry" />
        </mxCell>
        <mxCell id="oOPolchfcTFNNOlcy2nE-29" value="да" style="edgeStyle=orthogonalEdgeStyle;rounded=0;orthogonalLoop=1;jettySize=auto;html=1;" parent="WIyWlLk6GJQsqaUBKTNV-1" source="oOPolchfcTFNNOlcy2nE-10" target="oOPolchfcTFNNOlcy2nE-15" edge="1">
          <mxGeometry relative="1" as="geometry" />
        </mxCell>
        <mxCell id="oOPolchfcTFNNOlcy2nE-10" value="&lt;font style=&quot;font-size: 11px;&quot;&gt;Найдена хотя бы одна квартира?&lt;/font&gt;" style="rhombus;whiteSpace=wrap;html=1;" parent="WIyWlLk6GJQsqaUBKTNV-1" vertex="1">
          <mxGeometry x="376" y="180" width="156" height="80" as="geometry" />
        </mxCell>
        <mxCell id="oOPolchfcTFNNOlcy2nE-31" style="edgeStyle=orthogonalEdgeStyle;rounded=0;orthogonalLoop=1;jettySize=auto;html=1;entryX=0.5;entryY=0;entryDx=0;entryDy=0;" parent="WIyWlLk6GJQsqaUBKTNV-1" source="oOPolchfcTFNNOlcy2nE-13" target="oOPolchfcTFNNOlcy2nE-17" edge="1">
          <mxGeometry relative="1" as="geometry" />
        </mxCell>
        <mxCell id="oOPolchfcTFNNOlcy2nE-13" value="Формирование цены для сдачи в аренду" style="shape=process;whiteSpace=wrap;html=1;backgroundOutline=1;" parent="WIyWlLk6GJQsqaUBKTNV-1" vertex="1">
          <mxGeometry x="375" y="401" width="160" height="70" as="geometry" />
        </mxCell>
        <mxCell id="oOPolchfcTFNNOlcy2nE-48" style="edgeStyle=orthogonalEdgeStyle;rounded=0;orthogonalLoop=1;jettySize=auto;html=1;" parent="WIyWlLk6GJQsqaUBKTNV-1" source="oOPolchfcTFNNOlcy2nE-15" target="oOPolchfcTFNNOlcy2nE-13" edge="1">
          <mxGeometry relative="1" as="geometry" />
        </mxCell>
        <mxCell id="oOPolchfcTFNNOlcy2nE-15" value="Проходим по квартирам с ценой на продажу, которые вернула СУБД" style="strokeWidth=1;html=1;shape=mxgraph.flowchart.loop_limit;whiteSpace=wrap;" parent="WIyWlLk6GJQsqaUBKTNV-1" vertex="1">
          <mxGeometry x="370" y="292" width="170" height="70" as="geometry" />
        </mxCell>
        <mxCell id="oOPolchfcTFNNOlcy2nE-32" style="edgeStyle=orthogonalEdgeStyle;rounded=0;orthogonalLoop=1;jettySize=auto;html=1;entryX=0.5;entryY=0;entryDx=0;entryDy=0;" parent="WIyWlLk6GJQsqaUBKTNV-1" source="oOPolchfcTFNNOlcy2nE-17" target="oOPolchfcTFNNOlcy2nE-18" edge="1">
          <mxGeometry relative="1" as="geometry" />
        </mxCell>
        <mxCell id="oOPolchfcTFNNOlcy2nE-17" value="Расчёт полной стоимости квартиры" style="shape=process;whiteSpace=wrap;html=1;backgroundOutline=1;" parent="WIyWlLk6GJQsqaUBKTNV-1" vertex="1">
          <mxGeometry x="375" y="501" width="160" height="70" as="geometry" />
        </mxCell>
        <mxCell id="oOPolchfcTFNNOlcy2nE-62" style="edgeStyle=orthogonalEdgeStyle;rounded=0;orthogonalLoop=1;jettySize=auto;html=1;entryX=-0.004;entryY=0.582;entryDx=0;entryDy=0;entryPerimeter=0;" parent="WIyWlLk6GJQsqaUBKTNV-1" source="oOPolchfcTFNNOlcy2nE-18" target="oOPolchfcTFNNOlcy2nE-15" edge="1">
          <mxGeometry relative="1" as="geometry">
            <mxPoint x="346.55677795410156" y="364.4573440551758" as="targetPoint" />
            <Array as="points">
              <mxPoint x="349" y="639" />
              <mxPoint x="349" y="486" />
              <mxPoint x="350" y="486" />
              <mxPoint x="350" y="333" />
            </Array>
          </mxGeometry>
        </mxCell>
        <mxCell id="oOPolchfcTFNNOlcy2nE-18" value="Расчёт количества месяцев для самоокупаемости" style="rounded=0;whiteSpace=wrap;html=1;align=center;" parent="WIyWlLk6GJQsqaUBKTNV-1" vertex="1">
          <mxGeometry x="375" y="609" width="160" height="60" as="geometry" />
        </mxCell>
        <mxCell id="oOPolchfcTFNNOlcy2nE-19" value="конец" style="ellipse;whiteSpace=wrap;html=1;" parent="WIyWlLk6GJQsqaUBKTNV-1" vertex="1">
          <mxGeometry x="645" y="294" width="160" height="60" as="geometry" />
        </mxCell>
        <mxCell id="oOPolchfcTFNNOlcy2nE-59" style="edgeStyle=orthogonalEdgeStyle;rounded=0;orthogonalLoop=1;jettySize=auto;html=1;entryX=-0.003;entryY=0.419;entryDx=0;entryDy=0;entryPerimeter=0;" parent="WIyWlLk6GJQsqaUBKTNV-1" source="oOPolchfcTFNNOlcy2nE-3" target="oOPolchfcTFNNOlcy2nE-4" edge="1">
          <mxGeometry relative="1" as="geometry" />
        </mxCell>
        <mxCell id="oOPolchfcTFNNOlcy2nE-61" style="edgeStyle=orthogonalEdgeStyle;rounded=0;orthogonalLoop=1;jettySize=auto;html=1;entryX=0.004;entryY=0.362;entryDx=0;entryDy=0;entryPerimeter=0;" parent="WIyWlLk6GJQsqaUBKTNV-1" source="oOPolchfcTFNNOlcy2nE-5" target="oOPolchfcTFNNOlcy2nE-9" edge="1">
          <mxGeometry relative="1" as="geometry" />
        </mxCell>
        <mxCell id="oOPolchfcTFNNOlcy2nE-63" style="edgeStyle=orthogonalEdgeStyle;rounded=0;orthogonalLoop=1;jettySize=auto;html=1;entryX=0.017;entryY=0.549;entryDx=0;entryDy=0;entryPerimeter=0;" parent="WIyWlLk6GJQsqaUBKTNV-1" source="oOPolchfcTFNNOlcy2nE-15" target="oOPolchfcTFNNOlcy2nE-19" edge="1">
          <mxGeometry relative="1" as="geometry" />
        </mxCell>
        <mxCell id="oOPolchfcTFNNOlcy2nE-64" value="нет" style="edgeStyle=orthogonalEdgeStyle;rounded=0;orthogonalLoop=1;jettySize=auto;html=1;entryX=0.47;entryY=0.016;entryDx=0;entryDy=0;entryPerimeter=0;" parent="WIyWlLk6GJQsqaUBKTNV-1" source="oOPolchfcTFNNOlcy2nE-10" target="oOPolchfcTFNNOlcy2nE-19" edge="1">
          <mxGeometry x="-0.8847" y="5" relative="1" as="geometry">
            <mxPoint as="offset" />
          </mxGeometry>
        </mxCell>
        <mxCell id="oOPolchfcTFNNOlcy2nE-76" value="" style="edgeStyle=orthogonalEdgeStyle;rounded=0;orthogonalLoop=1;jettySize=auto;html=1;" parent="WIyWlLk6GJQsqaUBKTNV-1" source="oOPolchfcTFNNOlcy2nE-67" target="oOPolchfcTFNNOlcy2nE-75" edge="1">
          <mxGeometry relative="1" as="geometry" />
        </mxCell>
        <mxCell id="oOPolchfcTFNNOlcy2nE-67" value="Начало" style="ellipse;whiteSpace=wrap;html=1;" parent="WIyWlLk6GJQsqaUBKTNV-1" vertex="1">
          <mxGeometry x="-241" y="957" width="160" height="60" as="geometry" />
        </mxCell>
        <mxCell id="oOPolchfcTFNNOlcy2nE-78" value="" style="edgeStyle=orthogonalEdgeStyle;rounded=0;orthogonalLoop=1;jettySize=auto;html=1;" parent="WIyWlLk6GJQsqaUBKTNV-1" source="oOPolchfcTFNNOlcy2nE-75" target="oOPolchfcTFNNOlcy2nE-77" edge="1">
          <mxGeometry relative="1" as="geometry" />
        </mxCell>
        <mxCell id="oOPolchfcTFNNOlcy2nE-75" value="Ищем квартиры для сдачи в аренду с таким же количество комнат и разницей квадратурой не более 10 кв.м." style="whiteSpace=wrap;html=1;" parent="WIyWlLk6GJQsqaUBKTNV-1" vertex="1">
          <mxGeometry x="-42" y="949" width="176" height="75" as="geometry" />
        </mxCell>
        <mxCell id="oOPolchfcTFNNOlcy2nE-80" value="" style="edgeStyle=orthogonalEdgeStyle;rounded=0;orthogonalLoop=1;jettySize=auto;html=1;" parent="WIyWlLk6GJQsqaUBKTNV-1" source="oOPolchfcTFNNOlcy2nE-77" target="oOPolchfcTFNNOlcy2nE-79" edge="1">
          <mxGeometry relative="1" as="geometry" />
        </mxCell>
        <mxCell id="oOPolchfcTFNNOlcy2nE-77" value="Отбираем топ 3 ближайших" style="whiteSpace=wrap;html=1;" parent="WIyWlLk6GJQsqaUBKTNV-1" vertex="1">
          <mxGeometry x="197" y="957" width="178" height="60" as="geometry" />
        </mxCell>
        <mxCell id="oOPolchfcTFNNOlcy2nE-79" value="Возвращаем среднюю цену от топа квартир" style="shape=parallelogram;perimeter=parallelogramPerimeter;whiteSpace=wrap;html=1;fixedSize=1;" parent="WIyWlLk6GJQsqaUBKTNV-1" vertex="1">
          <mxGeometry x="192" y="1081" width="155" height="57" as="geometry" />
        </mxCell>
        <mxCell id="oOPolchfcTFNNOlcy2nE-83" value="Конец" style="ellipse;whiteSpace=wrap;html=1;" parent="WIyWlLk6GJQsqaUBKTNV-1" vertex="1">
          <mxGeometry x="-135" y="1081" width="160" height="60" as="geometry" />
        </mxCell>
        <mxCell id="oOPolchfcTFNNOlcy2nE-84" style="edgeStyle=orthogonalEdgeStyle;rounded=0;orthogonalLoop=1;jettySize=auto;html=1;entryX=1.028;entryY=0.471;entryDx=0;entryDy=0;entryPerimeter=0;" parent="WIyWlLk6GJQsqaUBKTNV-1" source="oOPolchfcTFNNOlcy2nE-79" target="oOPolchfcTFNNOlcy2nE-83" edge="1">
          <mxGeometry relative="1" as="geometry" />
        </mxCell>
        <mxCell id="oOPolchfcTFNNOlcy2nE-85" value="Конец" style="ellipse;whiteSpace=wrap;html=1;" parent="WIyWlLk6GJQsqaUBKTNV-1" vertex="1">
          <mxGeometry x="1127" y="1575" width="160" height="60" as="geometry" />
        </mxCell>
        <mxCell id="oOPolchfcTFNNOlcy2nE-89" value="Цена ремонт указана?" style="strokeWidth=1;html=1;shape=mxgraph.flowchart.decision;whiteSpace=wrap;" parent="WIyWlLk6GJQsqaUBKTNV-1" vertex="1">
          <mxGeometry x="610" y="958" width="165" height="100" as="geometry" />
        </mxCell>
        <mxCell id="oOPolchfcTFNNOlcy2nE-122" style="edgeStyle=orthogonalEdgeStyle;rounded=0;orthogonalLoop=1;jettySize=auto;html=1;endArrow=none;endFill=0;" parent="WIyWlLk6GJQsqaUBKTNV-1" source="oOPolchfcTFNNOlcy2nE-90" edge="1">
          <mxGeometry relative="1" as="geometry">
            <mxPoint x="1390" y="1335" as="targetPoint" />
          </mxGeometry>
        </mxCell>
        <mxCell id="oOPolchfcTFNNOlcy2nE-90" value="Рассчитываем стоимость ремонта, используя параметр пользователя" style="rounded=0;whiteSpace=wrap;html=1;" parent="WIyWlLk6GJQsqaUBKTNV-1" vertex="1">
          <mxGeometry x="1022" y="963" width="176" height="85" as="geometry" />
        </mxCell>
        <mxCell id="oOPolchfcTFNNOlcy2nE-95" value="да" style="edgeStyle=orthogonalEdgeStyle;rounded=0;orthogonalLoop=1;jettySize=auto;html=1;" parent="WIyWlLk6GJQsqaUBKTNV-1" source="oOPolchfcTFNNOlcy2nE-92" target="oOPolchfcTFNNOlcy2nE-94" edge="1">
          <mxGeometry relative="1" as="geometry" />
        </mxCell>
        <mxCell id="oOPolchfcTFNNOlcy2nE-92" value="Новостройка?" style="strokeWidth=1;html=1;shape=mxgraph.flowchart.decision;whiteSpace=wrap;" parent="WIyWlLk6GJQsqaUBKTNV-1" vertex="1">
          <mxGeometry x="885" y="1187" width="165" height="100" as="geometry" />
        </mxCell>
        <mxCell id="oOPolchfcTFNNOlcy2nE-121" style="edgeStyle=orthogonalEdgeStyle;rounded=0;orthogonalLoop=1;jettySize=auto;html=1;entryX=1.005;entryY=0.49;entryDx=0;entryDy=0;entryPerimeter=0;" parent="WIyWlLk6GJQsqaUBKTNV-1" source="oOPolchfcTFNNOlcy2nE-94" target="oOPolchfcTFNNOlcy2nE-85" edge="1">
          <mxGeometry relative="1" as="geometry">
            <mxPoint x="1352.1752319335938" y="1592.9625985281807" as="targetPoint" />
            <Array as="points">
              <mxPoint x="1390" y="1333" />
              <mxPoint x="1390" y="1604" />
            </Array>
          </mxGeometry>
        </mxCell>
        <mxCell id="oOPolchfcTFNNOlcy2nE-94" value="Рассчитываем стоимость ремонта для новостроек в Москве" style="whiteSpace=wrap;html=1;strokeWidth=1;" parent="WIyWlLk6GJQsqaUBKTNV-1" vertex="1">
          <mxGeometry x="1093" y="1292" width="195" height="82" as="geometry" />
        </mxCell>
        <mxCell id="oOPolchfcTFNNOlcy2nE-97" value="Рассчитываем стоимость ремонта для вторичек в Москве" style="whiteSpace=wrap;html=1;strokeWidth=1;" parent="WIyWlLk6GJQsqaUBKTNV-1" vertex="1">
          <mxGeometry x="1105" y="1408" width="195" height="82" as="geometry" />
        </mxCell>
        <mxCell id="oOPolchfcTFNNOlcy2nE-98" value="нет" style="edgeStyle=orthogonalEdgeStyle;rounded=0;orthogonalLoop=1;jettySize=auto;html=1;entryX=0.003;entryY=0.591;entryDx=0;entryDy=0;entryPerimeter=0;" parent="WIyWlLk6GJQsqaUBKTNV-1" source="oOPolchfcTFNNOlcy2nE-92" target="oOPolchfcTFNNOlcy2nE-97" edge="1">
          <mxGeometry relative="1" as="geometry">
            <Array as="points">
              <mxPoint x="968" y="1457" />
            </Array>
          </mxGeometry>
        </mxCell>
        <mxCell id="oOPolchfcTFNNOlcy2nE-101" value="да" style="edgeStyle=orthogonalEdgeStyle;rounded=0;orthogonalLoop=1;jettySize=auto;html=1;entryX=0.008;entryY=0.525;entryDx=0;entryDy=0;entryPerimeter=0;" parent="WIyWlLk6GJQsqaUBKTNV-1" source="oOPolchfcTFNNOlcy2nE-89" target="oOPolchfcTFNNOlcy2nE-90" edge="1">
          <mxGeometry relative="1" as="geometry" />
        </mxCell>
        <mxCell id="oOPolchfcTFNNOlcy2nE-104" value="Квартира из Москвы?" style="strokeWidth=1;html=1;shape=mxgraph.flowchart.decision;whiteSpace=wrap;" parent="WIyWlLk6GJQsqaUBKTNV-1" vertex="1">
          <mxGeometry x="613" y="1118" width="165" height="100" as="geometry" />
        </mxCell>
        <mxCell id="oOPolchfcTFNNOlcy2nE-105" value="да" style="edgeStyle=orthogonalEdgeStyle;rounded=0;orthogonalLoop=1;jettySize=auto;html=1;entryX=0.52;entryY=0.004;entryDx=0;entryDy=0;entryPerimeter=0;" parent="WIyWlLk6GJQsqaUBKTNV-1" source="oOPolchfcTFNNOlcy2nE-104" target="oOPolchfcTFNNOlcy2nE-92" edge="1">
          <mxGeometry relative="1" as="geometry" />
        </mxCell>
        <mxCell id="oOPolchfcTFNNOlcy2nE-106" value="нет" style="edgeStyle=orthogonalEdgeStyle;rounded=0;orthogonalLoop=1;jettySize=auto;html=1;entryX=0.483;entryY=0.038;entryDx=0;entryDy=0;entryPerimeter=0;" parent="WIyWlLk6GJQsqaUBKTNV-1" source="oOPolchfcTFNNOlcy2nE-89" target="oOPolchfcTFNNOlcy2nE-104" edge="1">
          <mxGeometry relative="1" as="geometry" />
        </mxCell>
        <mxCell id="oOPolchfcTFNNOlcy2nE-107" value="да" style="edgeStyle=orthogonalEdgeStyle;rounded=0;orthogonalLoop=1;jettySize=auto;html=1;" parent="WIyWlLk6GJQsqaUBKTNV-1" source="oOPolchfcTFNNOlcy2nE-108" target="oOPolchfcTFNNOlcy2nE-109" edge="1">
          <mxGeometry relative="1" as="geometry" />
        </mxCell>
        <mxCell id="oOPolchfcTFNNOlcy2nE-108" value="Новостройка?" style="strokeWidth=1;html=1;shape=mxgraph.flowchart.decision;whiteSpace=wrap;" parent="WIyWlLk6GJQsqaUBKTNV-1" vertex="1">
          <mxGeometry x="609" y="1295" width="165" height="100" as="geometry" />
        </mxCell>
        <mxCell id="oOPolchfcTFNNOlcy2nE-119" style="edgeStyle=orthogonalEdgeStyle;rounded=0;orthogonalLoop=1;jettySize=auto;html=1;endArrow=none;endFill=0;" parent="WIyWlLk6GJQsqaUBKTNV-1" source="oOPolchfcTFNNOlcy2nE-109" edge="1">
          <mxGeometry relative="1" as="geometry">
            <mxPoint x="1027.8452453613281" y="1604.1918313162666" as="targetPoint" />
          </mxGeometry>
        </mxCell>
        <mxCell id="oOPolchfcTFNNOlcy2nE-109" value="Рассчитываем стоимость ремонта для новостроек в ином городе" style="whiteSpace=wrap;html=1;strokeWidth=1;" parent="WIyWlLk6GJQsqaUBKTNV-1" vertex="1">
          <mxGeometry x="726" y="1447" width="195" height="82" as="geometry" />
        </mxCell>
        <mxCell id="oOPolchfcTFNNOlcy2nE-110" value="Рассчитываем стоимость ремонта для вторичек в ином городе" style="whiteSpace=wrap;html=1;strokeWidth=1;" parent="WIyWlLk6GJQsqaUBKTNV-1" vertex="1">
          <mxGeometry x="735" y="1563" width="195" height="82" as="geometry" />
        </mxCell>
        <mxCell id="oOPolchfcTFNNOlcy2nE-111" value="нет" style="edgeStyle=orthogonalEdgeStyle;rounded=0;orthogonalLoop=1;jettySize=auto;html=1;entryX=0.003;entryY=0.591;entryDx=0;entryDy=0;entryPerimeter=0;" parent="WIyWlLk6GJQsqaUBKTNV-1" source="oOPolchfcTFNNOlcy2nE-108" target="oOPolchfcTFNNOlcy2nE-110" edge="1">
          <mxGeometry relative="1" as="geometry">
            <Array as="points">
              <mxPoint x="601" y="1612" />
            </Array>
          </mxGeometry>
        </mxCell>
        <mxCell id="oOPolchfcTFNNOlcy2nE-112" value="нет" style="edgeStyle=orthogonalEdgeStyle;rounded=0;orthogonalLoop=1;jettySize=auto;html=1;entryX=0.523;entryY=0.017;entryDx=0;entryDy=0;entryPerimeter=0;" parent="WIyWlLk6GJQsqaUBKTNV-1" source="oOPolchfcTFNNOlcy2nE-104" target="oOPolchfcTFNNOlcy2nE-108" edge="1">
          <mxGeometry relative="1" as="geometry" />
        </mxCell>
        <mxCell id="oOPolchfcTFNNOlcy2nE-114" style="edgeStyle=orthogonalEdgeStyle;rounded=0;orthogonalLoop=1;jettySize=auto;html=1;" parent="WIyWlLk6GJQsqaUBKTNV-1" source="oOPolchfcTFNNOlcy2nE-113" target="oOPolchfcTFNNOlcy2nE-89" edge="1">
          <mxGeometry relative="1" as="geometry" />
        </mxCell>
        <mxCell id="oOPolchfcTFNNOlcy2nE-113" value="Начало" style="ellipse;whiteSpace=wrap;html=1;" parent="WIyWlLk6GJQsqaUBKTNV-1" vertex="1">
          <mxGeometry x="612" y="837" width="160" height="60" as="geometry" />
        </mxCell>
        <mxCell id="oOPolchfcTFNNOlcy2nE-116" style="edgeStyle=orthogonalEdgeStyle;rounded=0;orthogonalLoop=1;jettySize=auto;html=1;entryX=0.004;entryY=0.492;entryDx=0;entryDy=0;entryPerimeter=0;" parent="WIyWlLk6GJQsqaUBKTNV-1" source="oOPolchfcTFNNOlcy2nE-110" target="oOPolchfcTFNNOlcy2nE-85" edge="1">
          <mxGeometry relative="1" as="geometry" />
        </mxCell>
        <mxCell id="oOPolchfcTFNNOlcy2nE-120" style="edgeStyle=orthogonalEdgeStyle;rounded=0;orthogonalLoop=1;jettySize=auto;html=1;entryX=0.473;entryY=-0.004;entryDx=0;entryDy=0;entryPerimeter=0;" parent="WIyWlLk6GJQsqaUBKTNV-1" source="oOPolchfcTFNNOlcy2nE-97" target="oOPolchfcTFNNOlcy2nE-85" edge="1">
          <mxGeometry relative="1" as="geometry" />
        </mxCell>
      </root>
    </mxGraphModel>
  </diagram>
</mxfile>
